<svg xmlns="http://www.w3.org/2000/svg" viewBox="0 0 100 110" fill="none">
  <!-- Shield outline -->
  <path d="M50 5 L95 20 L95 55 C95 80 75 100 50 108 C25 100 5 80 5 55 L5 20 Z" fill="#1a1a1a" stroke="#1a1a1a" stroke-width="2"/>

  <!-- Inner shield -->
  <path d="M50 12 L88 25 L88 53 C88 75 70 92 50 99 C30 92 12 75 12 53 L12 25 Z" fill="white" stroke="#1a1a1a" stroke-width="2"/>

  <!-- Center stem -->
  <line x1="50" y1="35" x2="50" y2="85" stroke="#2d5a27" stroke-width="3" stroke-linecap="round"/>

  <!-- Top leaf -->
  <ellipse cx="50" cy="32" rx="8" ry="12" fill="#4a7c43" transform="rotate(0 50 32)"/>

  <!-- Left top leaf -->
  <ellipse cx="38" cy="45" rx="7" ry="11" fill="#4a7c43" transform="rotate(-35 38 45)"/>

  <!-- Right top leaf -->
  <ellipse cx="62" cy="45" rx="7" ry="11" fill="#4a7c43" transform="rotate(35 62 45)"/>

  <!-- Left bottom leaf -->
  <ellipse cx="35" cy="62" rx="6" ry="10" fill="#4a7c43" transform="rotate(-40 35 62)"/>

  <!-- Right bottom leaf -->
  <ellipse cx="65" cy="62" rx="6" ry="10" fill="#4a7c43" transform="rotate(40 65 62)"/>

  <!-- Bottom left small leaf -->
  <ellipse cx="40" cy="76" rx="5" ry="8" fill="#4a7c43" transform="rotate(-30 40 76)"/>

  <!-- Bottom right small leaf -->
  <ellipse cx="60" cy="76" rx="5" ry="8" fill="#4a7c43" transform="rotate(30 60 76)"/>
</svg>